# File exported by Unity3D version 2017.3.1f1
v 0.50000000 -0.50000000 0.50000000
v -0.50000000 -0.50000000 0.50000000
v 0.50000000 0.50000000 0.50000000
v -0.50000000 0.50000000 0.50000000
v 0.50000000 0.50000000 -0.50000000
v -0.50000000 0.50000000 -0.50000000
v 0.50000000 -0.50000000 -0.50000000
v -0.50000000 -0.50000000 -0.50000000
v 0.50000000 0.50000000 0.50000000
v -0.50000000 0.50000000 0.50000000
v 0.50000000 0.50000000 -0.50000000
v -0.50000000 0.50000000 -0.50000000
v 0.50000000 -0.50000000 -0.50000000
v 0.50000000 -0.50000000 0.50000000
v -0.50000000 -0.50000000 0.50000000
v -0.50000000 -0.50000000 -0.50000000
v -0.50000000 -0.50000000 0.50000000
v -0.50000000 0.50000000 0.50000000
v -0.50000000 0.50000000 -0.50000000
v -0.50000000 -0.50000000 -0.50000000
v 0.50000000 -0.50000000 -0.50000000
v 0.50000000 0.50000000 -0.50000000
v 0.50000000 0.50000000 0.50000000
v 0.50000000 -0.50000000 0.50000000
vt 0.00000 0.00000
vt 1.00000 0.00000
vt 0.00000 1.00000
vt 1.00000 1.00000
vt 0.00000 1.00000
vt 1.00000 1.00000
vt 0.00000 1.00000
vt 1.00000 1.00000
vt 0.00000 0.00000
vt 1.00000 0.00000
vt 0.00000 0.00000
vt 1.00000 0.00000
vt 0.00000 0.00000
vt 0.00000 1.00000
vt 1.00000 1.00000
vt 1.00000 0.00000
vt 0.00000 0.00000
vt 0.00000 1.00000
vt 1.00000 1.00000
vt 1.00000 0.00000
vt 0.00000 0.00000
vt 0.00000 1.00000
vt 1.00000 1.00000
vt 1.00000 0.00000
vt2 0.00000 0.00000
vt2 1.00000 0.00000
vt2 0.00000 1.00000
vt2 1.00000 1.00000
vt2 0.00000 1.00000
vt2 1.00000 1.00000
vt2 0.00000 1.00000
vt2 1.00000 1.00000
vt2 0.00000 0.00000
vt2 1.00000 0.00000
vt2 0.00000 0.00000
vt2 1.00000 0.00000
vt2 0.00000 0.00000
vt2 0.00000 1.00000
vt2 1.00000 1.00000
vt2 1.00000 0.00000
vt2 0.00000 0.00000
vt2 0.00000 1.00000
vt2 1.00000 1.00000
vt2 1.00000 0.00000
vt2 0.00000 0.00000
vt2 0.00000 1.00000
vt2 1.00000 1.00000
vt2 1.00000 0.00000
vn 0.00000000 0.00000000 1.00000000
vn 0.00000000 0.00000000 1.00000000
vn 0.00000000 0.00000000 1.00000000
vn 0.00000000 0.00000000 1.00000000
vn 0.00000000 1.00000000 0.00000000
vn 0.00000000 1.00000000 0.00000000
vn 0.00000000 0.00000000 -1.00000000
vn 0.00000000 0.00000000 -1.00000000
vn 0.00000000 1.00000000 0.00000000
vn 0.00000000 1.00000000 0.00000000
vn 0.00000000 0.00000000 -1.00000000
vn 0.00000000 0.00000000 -1.00000000
vn 0.00000000 -1.00000000 0.00000000
vn 0.00000000 -1.00000000 0.00000000
vn 0.00000000 -1.00000000 0.00000000
vn 0.00000000 -1.00000000 0.00000000
vn -1.00000000 0.00000000 0.00000000
vn -1.00000000 0.00000000 0.00000000
vn -1.00000000 0.00000000 0.00000000
vn -1.00000000 0.00000000 0.00000000
vn 1.00000000 0.00000000 0.00000000
vn 1.00000000 0.00000000 0.00000000
vn 1.00000000 0.00000000 0.00000000
vn 1.00000000 0.00000000 0.00000000
g Cube_0
f 1/1/1/1 3/3/3/3 4/4/4/4
f 1/1/1/1 4/4/4/4 2/2/2/2
f 9/9/9/9 5/5/5/5 6/6/6/6
f 9/9/9/9 6/6/6/6 10/10/10/10
f 11/11/11/11 7/7/7/7 8/8/8/8
f 11/11/11/11 8/8/8/8 12/12/12/12
f 13/13/13/13 14/14/14/14 15/15/15/15
f 13/13/13/13 15/15/15/15 16/16/16/16
f 17/17/17/17 18/18/18/18 19/19/19/19
f 17/17/17/17 19/19/19/19 20/20/20/20
f 21/21/21/21 22/22/22/22 23/23/23/23
f 21/21/21/21 23/23/23/23 24/24/24/24
